/* XPM */
static char *d908713d2fb14282df2cc6bd2868321fBx5GG7kGzyKdQndB[] = {
/* columns rows colors chars-per-pixel */
"92 64 13 1 ",
"  c #00B7EF",
". c black",
"X c #990030",
"o c #5E0824",
"O c #ECAF82",
"+ c white",
"@ c #4D6DF3",
"# c #E6676E",
"$ c #BA181E",
"% c #7ABB99",
"& c #FFF9BD",
"* c #F5E49C",
"= c #509972",
/* pixels */
"                                                                                            ",
"                                                                     ......  .......        ",
"                                                                  ...XXXXXX..XXXXXXX...     ",
"                                                                 .XXXXXXXXXXXXXXXXXXXXX.    ",
"                                                                ..XXXXXXXXXXXXXXXXXXXXXX.   ",
"                                                               ..XXXXXXXX..XXX..XXXXXoXX.   ",
"                                                              ..XXXXXXXX.OO...OO.XXXXooX..  ",
"                                                             ..XXXXXXXX.O..OOO..O.XXXXoXX.. ",
"                                                            .XXXXXXXXXX.OOOOOOOOOO.XXXoXXX. ",
"                                          ........         ..XXXXXXXXX.O...OOO...OO.XXooXX. ",
"                                     ......XXXXXX.        ..XXXXXXooXX..+++.O.+++.O.XXXoXX..",
"                                    ..XXXXXXXXXXX..........XXXXXoooXXX....+.O...+.O.XXXoXXX.",
"                                   .XXXXXXXXXXXXXXXXXXXX.XXXXXXooXXXXX..@@+.O.@@+.O.XXXoXXX.",
"                                  .XXXXXXXXXXXXXXXXXXXXXXXXXXXoXXXXXXX.O...OOO...OO.XXXoXXX.",
"                                 ..XXXXXXooooooXXXXXXXXXXXXXooXXXXXXXX.###OOOOO###O.XXXoXXX.",
"                                 ....XXXXXXooXXXXXXXXXXXXXXXo$$$$$XXXX.###.OOOO.##.XXXooXXX.",
"                                    ...XXXXXooXXXX$XXXXXX$$$XXXXXXXXXXX.OO......OOXXXXoXXXX.",
"                                      ..XXXXXooXXXo$$$$$$$XoooooooXXXXXX.OO....OO.XXooXXXXX.",
"                                        ..XXXXXXXXooooooXooXXXXXXXXXXXXXX.OOOOOO.XXooXXXXX..",
"                                         ..XXXXXXXXXXXXXoXXXXXXXXXXXXXXXXX.OOOO..XXXXXXXXX. ",
"                                          ...XXXXXXX$$$$XXXXXXXXXXXXXXXXXXX..OO.XXXXXXXXX.. ",
"                                            ..XXXXXXXXXX$$$$$$$XXXXXXXXXXXX..OOO...XXXXX..  ",
"                                             ..XXXXXXXXXXoooXXX$XXXXXXXX...OOOOOOOO.XXXX.   ",
"      ..........                              ...XXXXXXXXXXooooooooooXX.OOOOOOOOOOOO.XX..   ",
"     ...%%%%%%%..                               .........XXXXXXXXXXXXX.OOOOOOOOOOOOOOO..    ",
"     ..&....%%%%..                                      .XXXXXXXX.......................    ",
"      ..&&&...%%%..                                  ...XXXXXXXXX.&&&&&&&&&&&&&&&&&&&&.O.   ",
"        ...&&...%%%.                                ..XXXXXXXXXXX.&....&..&..&.&.....&.O.   ",
"          ...&&..%%..                                ...XXXXXX....&.&&&&&.&.&&.&&&.&&&.O.   ",
"            ..&&..%%..                                 ...........&....&&&.&&&.&&&.&&....   ",
"             ..&&.%%%.                                        .O..&.&&&&&.&.&&.&&&.&..OOO.  ",
"              .&&..%%..                                       .OO......&..&..&.&&&...OOOOO. ",
"              .&&&..%%.              ......                   .OOO.&&&&&&&&&&&&&&&&.OOOOOO. ",
"              .&*&&..%%.          ....%%%%%....               .OOO..................OOOOO.. ",
"              .&&*&&.%%.       ...%%%%%%%%%%%%..              ..OO.   .OOOOOOOOOOOO..OOOO.  ",
"              .&&*&&.%%%.    ...%%%%%%%%%%%%%%%%..             ....    .OOOOOOOOOO.......   ",
"              .&&**&.%%%.  ..%%%%%%%%%%%%%%%%%%%%%.                    .OOOOOOOOO.          ",
"              .&&&&&.%%%%...%%%%%%%%%%%%%%%%%%%%%%%.                  .OOOOOOOOO.           ",
"              .&&&&&.%%%%%%%%%%%%%%%%==%%%%%%%%%%%%..             ....OOOO.OOOOO.           ",
"             ..&***&.%%%%%%%%%%%%%%%%%%%%%%%%%%%=%%%%.            .**..OOOOOOOOO.           ",
"             .&&&&*&.%%%%%%%%%%%%%%%%%%%%%%%%%%%=%%%%%.        ....***.OOOOOO......         ",
"            ..&&&&&&.%%%%%%%%%%%%%%%%%%%%%%%%%%%%%%%%%..     ...%%...*..OOOO..****.         ",
"            .*****&&.%%%%%%%%%%%%%%%%%%%%%%%%%%%%%%%%%%..   ..%%%%%%..*..O...*****.         ",
"           .&&&&&*&&.%%%%%...........%%%%%%%%%%%%%%%%%%%.....%%%%%%%%%.*...****.....        ",
"          ..&&&**&&..%%...           .....%%%%%%%%%%%%%%%%%%%%%%%%%%%%.****....%%%%.        ",
"         ..****&&&..%%..                  ..%%%%%%%%%%%%%%%%%%%%%%%%%%..*...%%%%%%%..       ",
"        ..&***&&&..%%..                    ...%%%%%%%%%%%%%%%%%%%%%%%%%...%%%%%%%%%%.       ",
"       .***&&&&..%%%..                        .%%%%%%%%%%%%%%%%%=%%%%%%%%%%%%%%%%%%%..      ",
"     ...&&&&&...%%%..                          ..%%%%%%%%%%%%%%%==%%%%%%%%%%%%%%%%%%%.      ",
"   ..&&&&&&..%%%%%..                            ..%%%%%%%%%%%%%%%%%%%%%%%%%%%%%%%%%%%.      ",
"  ..&&&&&&..%%%%..                               ..%%%%%%%%%%%%%%%%%%%%%%%%%%%%%%%%%%.      ",
"  ..............                                  .%%%%%%%==%%%%%%%%%%%%%%%%%%%%%%%%%.      ",
"                                                  ..%%%%%%=%%%%%%%%%%%%%%%%=%%%%%%%%%.      ",
"                                                   ..%%%%%%%%%%%%%%%%%%%%%%===%%%%%%%.      ",
"                                                    .%%%%%%%%%%%%%%%%%%%%%%%%%%%%%%%%.      ",
"                                                    ..%%%%%%%%%%%%%=%%%%%%%%%%%%%%%%%.      ",
"                                                     ..%%%%%%%%%%%%=%%%%%%%%%%%%%%%%%.      ",
"                                                      ..%%%%%%%%%%%==%%%%%%%%%%%%%%%.       ",
"                                                       ..%%%%%%%%%%%%%%%%%%%%%%%%%%.        ",
"                                                        ...%%%%%%%%%%%%%%%%%%%%%%%%.        ",
"                                                         ...%%%%%%%%%%%%%%%%%%%%%..         ",
"                                                           ....%%%%%%%%%%%%%%%%%..          ",
"                                                              ......%%%%%%%%%%%..           ",
"                                                                  ..............            "
};
