/* XPM */
static char *fb45c107688a4273e508c7eabb4901a5ibNXjpJMv5oyWRGR[] = {
/* columns rows colors chars-per-pixel */
"92 64 13 1 ",
"  c black",
". c #5E0824",
"X c #BA181E",
"o c #990030",
"O c #E6676E",
"+ c #4D6DF3",
"@ c #7ABB99",
"# c #00B7EF",
"$ c #B4B4B4",
"% c #ECAF82",
"& c #F5E49C",
"* c #FFF9BD",
"= c white",
/* pixels */
"#####################################            ######################            #########",
"###################################   **********       ##########       **********   #######",
"#################################   **&&&&&&&&&&******  ########  ******&&&&&&&&&&**   #####",
"################################  **&&&****************   ####   ****************&&&**  ####",
"###############################  *&&&************&&&&&&&*  ##  *&&&&&&&************&&&*  ###",
"##############################  *&&**         *&&*********    *********&&*         **&&*  ##",
"############################## *&*   @@@@@@@@@       ****&&**&&****       @@@@@@@@@   *&* ##",
"############################# *   @@@@@@@@@@@@@@@@@@@    &****&    @@@@@@@@@@@@@@@@@@@   * #",
"#############################  @@@@@@@@@@@@@@@@@@@@@@@@@@ **** @@@@@@@@@@@@@@@@@@@@@@@@@@  #",
"############################ @@@@@             @@@@@@@@@@@ ** @@@@@@@@@@@             @@@@@ ",
"############################ @    #######                @@  @@                #######    @ ",
"############################  ##########  ooooooooooooo   @@@@   ooooooooooooo  ##########  ",
"#######################################  oooooooooooooooo  @@  oooooooooooooooo  ###########",
"######################################  oooooooooooooooooo    oooooooooooooooooo  ##########",
"##################################### ooooooo..oooooooooooooooooooooooooo..ooooooo #########",
"####################################  ooooo..oooooooooooooooooooooooooooooo..ooooo  ########",
"###################################  oXXoo..ooooooo                  ooooooo..ooXXo  #######",
"################################### oXXoo..oXXoo    %%%%%%%%%%%%%%%%    ooXXo..ooXXo #######",
"##################################  XXoo..XXooo  %%%%%%%%%%%%%%%%%%%%%%  oooXX..ooXX  ######",
"################################  ooXooooooooo %%%%%%%%%%%%%%%%%%%%%%%%%% oooooooooXoo  ####",
"##############################   ooXXo    oo  %%%%%%%%%%%%%%%%%%%%%%%%%%%%  oo    oXXoo   ##",
"############################   oooooo +==   %%%%%%%%%%%%%%%%%%%%%%%%%%%%%%%%   ==+ oooooo   ",
"############################ ooooooo ++==  %%%%%%%%%%%%          %%%%%%%%%%%%  ==++ ooooooo ",
"############################ oooooo ++==  %%%%%%%%%    OOOOOOOOOO    %%%%%%%%%  ==++ oooooo ",
"############################ oo.oo  ===  %%%%%%%%  OOOOOOOOOOOOOOOOOO  %%%%%%%%  ===  oo.oo ",
"############################ o..oo ===  %%%%%%%  OOOOOOOOOOOOOOOOOOOOOO  %%%%%%%  === oo..o ",
"############################ o.Xoo =   %%%%%%  OOOOO                OOOOO  %%%%%%   = ooX.o ",
"############################ o.Xoo   %%%%%%% OOOO                      OOOO %%%%%%%   ooX.o ",
"############################ o.Xooo %%%%%%% OOOO                        OOOO %%%%%%% oooX.o ",
"############################ o.Xoo  %%%%%% OOO                            OOO %%%%%%  ooX.o ",
"############################ o.ooo %%%%%% OOO                              OOO %%%%%% ooo.o ",
"############################ oooo  %%%%% OOO                                OOO %%%%%  oooo ",
"############################ oooo %%%%% OOO                                  OOO %%%%% oooo ",
"############################  ooo   %% OOO                                    OOO %%   ooo  ",
"############################   oo $ %% OOO                                    OOO %% $ oo   ",
"############################ $ oo $ % OOO                                      OOO % $ oo $ ",
"############################ $ oo $  OOO                                        OOO  $ oo $ ",
"############################ $$ o $$ OOO                                        OOO $$ o $$ ",
"############################ $$   $$ OO                                          OO $$   $$ ",
"############################ $$$  $$ OO                                          OO $$  $$$ ",
"############################ $$$$$$$ O                                            O $$$$$$$ ",
"############################% $$$$$$ O                                            O $$$$$$ %",
"############################%  $$$$  O                                            O  $$$$  %",
"############################%% $$$$ OO                                            OO $$$$ %%",
"############################%% $$$$ OO                                            OO $$$$ %%",
"############################%% $$$$ O                                              O $$$$ %%",
"############################%% $$$$ O                                              O $$$$ %%",
"############################%%  $$$ O                                              O $$$  %%",
"############################%%% $$$ O                                              O $$$ %%%",
"############################%%% $$$ O                                              O $$$ %%%",
"############################%%% $$$ O                                              O $$$ %%%",
"############################%%%  $$ O                                              O $$  %%%",
"############################%%%% $$ O                                              O $$ %%%%",
"############################%%%%  $ O                                              O $  %%%%",
"############################%%%                                                          %%%",
"############################%%  %%%%%                                              %%%%%  %%",
"############################%  %%%%%%%                                            %%%%%%%  %",
"############################% %%%%%%%%%                                          %%%%%%%%% %",
"############################%%%%%%%%%%%                                          %%%%%%%%%%%",
"############################%%%%%%%%%%%                                          %%%%%%%%%%%",
"############################%%%%%%%%%%%%                                        %%%%%%%%%%%%",
"############################%%%%%%%%%%%%                                        %%%%%%%%%%%%",
"############################%%%%%%%%%%%%                                        %%%%%%%%%%%%",
"############################%  %%%%%%%                                            %%%%%%%  %"
};
