/* XPM */
static char *e77bb30abd4b4311d739a857356a5f79dN2GleVaSENxzcVZ[] = {
/* columns rows colors chars-per-pixel */
"92 64 13 1 ",
"  c #00B7EF",
". c black",
"X c #990030",
"o c #5E0824",
"O c #ECAF82",
"+ c white",
"@ c #4D6DF3",
"# c #E6676E",
"$ c #BA181E",
"% c #7ABB99",
"& c #FFF9BD",
"* c #F5E49C",
"= c #509972",
/* pixels */
"                                                                     ......  .......        ",
"                                                                  ...XXXXXX..XXXXXXX...     ",
"                                                                 .XXXXXXXXXXXXXXXXXXXXX.    ",
"                                                                ..XXXXXXXXXXXXXXXXXXXXXX.   ",
"                                                               ..XXXXXXXX..XXX..XXXXXoXX.   ",
"                                                              ..XXXXXXXX.OO...OO.XXXXooX..  ",
"                                                             ..XXXXXXXX.O..OOO..O.XXXXoXX.. ",
"                                                            .XXXXXXXXXX.OOOOOOOOOO.XXXoXXX. ",
"                                                           ..XXXXXXXXX.O...OOO...OO.XXooXX. ",
"                                             .......      ..XXXXXXooXX..+++.O.+++.O.XXXoXX..",
"                                           ..XXXXXX..   ...XXXXXoooXXX....+.O...+.O.XXXoXXX.",
"                                        ....XXXXXXXX.....XXXXXXooXXXXX..@@+.O.@@+.O.XXXoXXX.",
"                                      ...XXXXXXXXXXXXXXXXXXXXooXXXXXXX.O...OOO...OO.XXXoXXX.",
"                                     ..XXXXXXXXXXXXXXXXXXXXXooXXXXXXXX.###OOOOO###O.XXXoXXX.",
"                                    .XXXXXXXXXXXXXXXXXXXXXXXXXX$$XXXXX.###.OOOO.##.XXXooXXX.",
"                                   ..XXXXoooXXXXXXXXXXXoooooo$$$XXXXXXX.OO......OOXXXXoXXXX.",
"                                  ..XXXXooXXXXXXXX$XXXooXXX$$oooooXXXXXX.OO....OO.XXooXXXXX.",
"            ....                 ..XXXXXXXooXXXXXXo$$XX$$$$XXXXXXXoXXXXXX.OOOOOO.XXooXXXXX..",
"           ..%%....              .XXXXXXXXXXoXXXXXooXXXXXXXXXXXXXXXXXXXXXX.OOOO..XXXXXXXXX. ",
"           .&..%%%%.             .......XXXXXXXXXXXXXXXXXXXXXXXXXXXXXXXXXXX..OO.XXXXXXXXX.. ",
"           ..&&..%%%.                  ...XXXXXXXXXXXXXXXoooXXXXXXXXXXXXXXX..OOO...XXXXX..  ",
"             ..&...%%.                    ...XXXXXXXXXX$$$$$$$$$$$$XXXXX...OOOOOOOO.XXXX.   ",
"              .&&&.%%%.                     .......XXXXXXXXXooXXXXX$XXX.OOOOOOOOOOOO.XX..   ",
"               .&&...%..                           ..XXXXXXXXXoooXXXXX.OOOOOOOOOOOOOO.X.    ",
"                ..&..%%.                            ..XXXXXXXXXXXXXXXX.OOOOOOOOOOOOOOO..    ",
"                 .&&..%..                             .XXXXXXXXXX.......................    ",
"                 .&&&.%%.                             .XXXXXXXXXX.&&&&&&&&&&&&&&&&&&&&.O.   ",
"                 .&&&.%%%.                             ...XXXXXXX.&....&..&..&.&.....&.O.   ",
"                 .&&&.%%%.                               .........&.&&&&&.&.&&.&&&.&&&.O.   ",
"                 .&*&..%%.                                   .....&....&&&.&&&.&&&.&&....   ",
"                 .&&*&.%%.                                    .O..&.&&&&&.&.&&.&&&.&..OOO.  ",
"                .&&*&&.%%..                                   .OO......&..&..&.&&&...OOOOO. ",
"                .&&**&.%%%.                                   .OOO.&&&&&&&&&&&&&&&&.OOOOOO. ",
"                .&&&&&.%%%.                                   .OOO..................OOOOO.. ",
"               ..&&&&&.%%%.          ......                   ..OO.   .OOOOOOOOOOOO..OOOO.  ",
"              .&&***&.%%%%%. .........%%%%%....                ....    .OOOOOOOOOO.......   ",
"             ..&&&&*&.%%%%%%.%%%%%%%%%%%%%%%%%..                       .OOOOOOOOO.          ",
"            ..**&&&&&.%%%%%%%%%%%%%%%%%%%%%%%%%%..                    .OOOOOOOOO.           ",
"          ..&&&&***&&.%%%%%%%%%%%%%%%%%%%%%%%%%%%%.               ....OOOO.OOOOO.           ",
"         ..*&&&*&*&&.%%%%%%%%%%%%%%%%%%%%%%%%%%%%%%.              .**..OOOOOOOOO.           ",
"       ...&****&*&&..%%%%%%%%%%%%%%%%==%%%%%%%%%%%%..          ....***.OOOOOO......         ",
"   ....&***&**&&&&..%%%%%%.%%%%%%%%%%%%%%%%%%%%%%%%%%. .     ...%%...*..OOOO..****.         ",
" ..&&&&&&&&&&&.....%%%.... ....%%%%%%%%%%%%%%%%%=%%%%%...   ..%%%%%%..*..O...*****.         ",
" ...&&&&&......%%%%%%.         .%%%%%%%%%%%%%%%=%%%%%%%%.....%%%%%%%%%.*...****.....        ",
"    .....%%%%%%%%%%..           .%%%%%%%%%%%%%%%%%%%%%%%%%%%%%%%%%%%%%.****....%%%%.        ",
"        ..%%%%%%%...             ....%%%%%%%%%%%%%%%%%%%%%%%%%%%%%%%%%..*...%%%%%%%..       ",
"          .......                    .....%%%%%%%%%%%%%%%%%%%%%%%%%%%%%...%%%%%%%%%%.       ",
"                                          ..%%%%%%%%%%%%%%%%%%%%=%%%%%%%%%%%%%%%%%%%..      ",
"                                           ...%%%%%%%%%%%%%%%%%=%%%%%%%%%%%%%%%%%%%%%.      ",
"                                              .%%%%%%%%%%%%%%%%%=%%%%%%%%%%%%%%%%%%%%.      ",
"                                               ..%%%%%%%%%%%%%%%%%%%%%%%%%%%%%%%%%%%%.      ",
"                                                ..%%%%%%%%%%%%%%%%%%%%%%%%%%%%%%%%%%%.      ",
"                                                 ..%%%%%%=%%%%%%%%%%%%%%%%%=%%%%%%%%%.      ",
"                                                  .%%%%%=%%%%%%%%%%%%%%%%%%===%%%%%%%.      ",
"                                                  ..%%%%=%%%%%%%%%%%%%%%%%%%%%%%%%%%%.      ",
"                                                   ..%%%%%%%%%%%%%%=%%%%%%%%%%%%%%%%%.      ",
"                                                    .%%%%%%%%%%%%%%=%%%%%%%%%%%%%%%%%.      ",
"                                                     .%%%%%%%%%%%%%%=%%%%%%%%%%%%%%%.       ",
"                                                      ..%%%%%%%%%%%%%%%%%%%%%%%%%%%.        ",
"                                                        ...%%%%%%%%%%%%%%%%%%%%%%%%.        ",
"                                                         ...%%%%%%%%%%%%%%%%%%%%%..         ",
"                                                           ....%%%%%%%%%%%%%%%%%..          ",
"                                                              ......%%%%%%%%%%%..           ",
"                                                                  ..............            "
};
