/* XPM */
static char *d7f6250eb9d24f84f4de297f2f3cd395UkqzLZ7VEMuIpnvF[] = {
/* columns rows colors chars-per-pixel */
"64 64 6 1 ",
"  c black",
". c #ED1C24",
"X c #4D6DF3",
"o c #00B7EF",
"O c #99D9EA",
"+ c white",
/* pixels */
"                                                                ",
"                                                                ",
"  oooooooooooooooooooooooooooooooooooooooooooooooooooooooooooo  ",
"  oooooooooooooooooooooooooooooooooooooooooooooooooooooooooooo  ",
"  oooooooooooooooooooooooooooooooooooooooooooooooooooooooooooo  ",
"  oooooooooooooooooooooooooooooooooooooooooooooooooooooooooooo  ",
"  oooooooooooooooooooooooooooooooooooooooooooooooooooooooooooo  ",
"  oooooooooooooooooooooooooooooooooooooooooooooooooooooooooooo  ",
"  oooooooooooooooooooooooooooooooooooooooooooooooooooooooooooo  ",
"  oooooooooooooooooooooooooooooooooooooooooooooooooooooooooooo  ",
"  oooooooooooooooooooooooooooooooooooooooooooooooooooooooooooo  ",
"  oooooooooooooooooooooooooooooooooooooooooooooooooooooooooooo  ",
"  oooooooooooooooooooooooooooooooooooooooooooooooooooooooooooo  ",
"  oooooooooooooooooooooooooooooooooooooooooooooooooooooooooooo  ",
"  oooooooooooooooooooooooooooooooooooooooooooooooooooooooooooo  ",
"  oooooooooooooooooooooooooooooooooooooooooooooooooooooooooooo  ",
"  oooooooooooooooooooooooooooooooooooooooooooo      oooooooooo  ",
"  oooooooooooooooooooooooooooooooooooooooooooo      oooooooooo  ",
"  oooooooooooooooooooooooooooooooooooooooooooooooooo  oooooooo  ",
"  oooooooooooooooooooooooooooooooooooooooooooooooooo  oooooooo  ",
"  oooooooooooooooooooooooooooooooooooooooooooooooooooooooooooo  ",
"  oooooooooooooooooooooooooooooooooooooooooooooooooooooooooooo  ",
"  oooooooooooooooooooooooooooooooooooooooooooooooooooooooooooo  ",
"  oooooooooooooooooooooooooooooooooooooooooooooooooooooooooooo  ",
"  oooooooooooooooooooooooooooooooooooooooooooo        oooooooo  ",
"  oooooooooooooooooooooooooooooooooooooooooooo        oooooooo  ",
"  oooooooooooooooooooooooooooooooooooooooooo  ++++  ++  oooooo  ",
"  oooooooooooooooooooooooooooooooooooooooooo  ++++  ++  oooooo  ",
"  oooooooooo            oooooooooooooooooooo  ++++++++  oooooo  ",
"  oooooooooo            oooooooooooooooooooo  ++++++++  oooooo  ",
"  ooooooooooXXXXXXXXXXXX  oooooooooooooooooo  ++++++++  oooooo  ",
"  ooooooooooXXXXXXXXXXXX  oooooooooooooooooo  ++++++++  oooooo  ",
"  oooooooooo    OOOOOOOOXX  oooooooooooooooooo        oooooooo  ",
"  oooooooooo    OOOOOOOOXX  oooooooooooooooooo        oooooooo  ",
"  ooooooooooOOOO          XX  oooooooooooooooooooooooooooooooo  ",
"  ooooooooooOOOO          XX  oooooooooooooooooooooooooooooooo  ",
"  oooooooooo  OOOOOOOOOOOOOOXX  oooooooooooooooooo              ",
"  oooooooooo  OOOOOOOOOOOOOOXX  oooooooooooooooooo              ",
"  ooooooooooOO                  oooooooooooooooo  ..............",
"  ooooooooooOO                  oooooooooooooooo  ..............",
"  ooooooooooOOOOOOOOOOOOOOOOXX  oooooooooooooooo  ..............",
"  ooooooooooOOOOOOOOOOOOOOOOXX  oooooooooooooooo  ..............",
"  oooooooooo                    oooooooooooooooooo              ",
"  oooooooooo                    oooooooooooooooooo              ",
"  oooooooooooooooooooooooooooooooooooooooooooooo  ..............",
"  oooooooooooooooooooooooooooooooooooooooooooooo  ..............",
"  oooooooooooooooooooooooooooooooooooooooooooooo  ..............",
"  oooooooooooooooooooooooooooooooooooooooooooooo  ..............",
"  oooooooooooooooooooooooooooooooooooooooooooooooo              ",
"  oooooooooooooooooooooooooooooooooooooooooooooooo              ",
"  oooooooooooooooooooooooooooooooooooooooooooooooooooooooooooo  ",
"  oooooooooooooooooooooooooooooooooooooooooooooooooooooooooooo  ",
"  oooooooooooooooooooooooooooooooooooooooooooooooooooooooooooo  ",
"  oooooooooooooooooooooooooooooooooooooooooooooooooooooooooooo  ",
"  oooooooooooooooooooooooooooooooooooooooooooooooooooooooooooo  ",
"  oooooooooooooooooooooooooooooooooooooooooooooooooooooooooooo  ",
"  oooooooooooooooooooooooooooooooooooooooooooooooooooooooooooo  ",
"  oooooooooooooooooooooooooooooooooooooooooooooooooooooooooooo  ",
"  oooooooooooooooooooooooooooooooooooooooooooooooooooooooooooo  ",
"  oooooooooooooooooooooooooooooooooooooooooooooooooooooooooooo  ",
"  oooooooooooooooooooooooooooooooooooooooooooooooooooooooooooo  ",
"  oooooooooooooooooooooooooooooooooooooooooooooooooooooooooooo  ",
"                                                                ",
"                                                                "
};
