/* XPM */
static char *_46f9a3f629c43f2b2ae68281423ff54vVnD0gUFQBmwusnn[] = {
/* columns rows colors chars-per-pixel */
"64 64 6 1 ",
"  c black",
". c #ED1C24",
"X c #4D6DF3",
"o c #00B7EF",
"O c #99D9EA",
"+ c white",
/* pixels */
"                                                                ",
"                                                                ",
"  oooooooooooooooooooooooooooooooooooooooooooooooooooooooooooo  ",
"  oooooooooooooooooooooooooooooooooooooooooooooooooooooooooooo  ",
"  oooooooooooooooooooooooooooooooooooooooooooooooooooooooooooo  ",
"  oooooooooooooooooooooooooooooooooooooooooooooooooooooooooooo  ",
"  oooooooooooooooooooooooooooooooooooooooooooooooooooooooooooo  ",
"  oooooooooooooooooooooooooooooooooooooooooooooooooooooooooooo  ",
"  oooooooooooooooooooooooooooooooooooooooooooooooooooooooooooo  ",
"  oooooooooooooooooooooooooooooooooooooooooooooooooooooooooooo  ",
"  oooooooooooooooooooooooooooooooooooooooooooooooooooooooooooo  ",
"  oooooooooooooooooooooooooooooooooooooooooooooooooooooooooooo  ",
"  oooooooooooooooooooooooooooooooooooooooooooooooooooooooooooo  ",
"  oooooooooooooooooooooooooooooooooooooooooooooooooooooooooooo  ",
"  oooooooooooooooooooooooooooooooooooooooooooo      oooooooooo  ",
"  oooooooooooooooooooooooooooooooooooooooooooo      oooooooooo  ",
"  oooooooooooooooooooooooooooooooooooooooooo  oooooo  oooooooo  ",
"  oooooooooooooooooooooooooooooooooooooooooo  oooooo  oooooooo  ",
"  oooooooooooooooooooooooooooooooooooooooooooooooooooooooooooo  ",
"  oooooooooooooooooooooooooooooooooooooooooooooooooooooooooooo  ",
"  oooooooooooooooooooooooooooooooooooooooooooooo    oooooooooo  ",
"  oooooooooooooooooooooooooooooooooooooooooooooo    oooooooooo  ",
"  oooooooooooooo          oooooooooooooooooooo  ++++  oooooooo  ",
"  oooooooooooooo          oooooooooooooooooooo  ++++  oooooooo  ",
"  ooooooooooooooXXXXXXXX      oooooooooooooo  ++++++++  oooooo  ",
"  ooooooooooooooXXXXXXXX      oooooooooooooo  ++++++++  oooooo  ",
"  oooooooooooooo        XXXX    oooooooooooo  ++++  ++  oooooo  ",
"  oooooooooooooo        XXXX    oooooooooooo  ++++  ++  oooooo  ",
"  ooooooooooooooOOOOOOOO  XXXX  oooooooooooo  ++++++++  oooooo  ",
"  ooooooooooooooOOOOOOOO  XXXX  oooooooooooo  ++++++++  oooooo  ",
"  oooooooooooooo        OO  XX  oooooooooooooo  ++++  oooooooo  ",
"  oooooooooooooo        OO  XX  oooooooooooooo  ++++  oooooooo  ",
"  ooooooooooooooOOOOOOOOOOOOXX  oooooooooooooooo    oooooooooo  ",
"  ooooooooooooooOOOOOOOOOOOOXX  oooooooooooooooo    oooooooooo  ",
"  oooooooooooooo          OOXX  oooooooooooooooooooooo          ",
"  oooooooooooooo          OOXX  oooooooooooooooooooooo          ",
"  ooooooooooooooOOOOOOOOOOOOXX  oooooooooooooooooooo    ......  ",
"  ooooooooooooooOOOOOOOOOOOOXX  oooooooooooooooooooo    ......  ",
"  oooooooooooooo                oooooooooooooooooooo  ..........",
"  oooooooooooooo                oooooooooooooooooooo  ..........",
"  ooooooooooooooOOOOOOOOOOOOXX  oooooooooooooooooooo  ..........",
"  ooooooooooooooOOOOOOOOOOOOXX  oooooooooooooooooooo  ..........",
"  oooooooooooooo          XX    oooooooooooooooooooo            ",
"  oooooooooooooo          XX    oooooooooooooooooooo            ",
"  ooooooooooooooXXXXXXXXXX  oooooooooooooooooooooooo  ..........",
"  ooooooooooooooXXXXXXXXXX  oooooooooooooooooooooooo  ..........",
"  oooooooooooooo          oooooooooooooooooooooooooo  ..........",
"  oooooooooooooo          oooooooooooooooooooooooooo  ..........",
"  oooooooooooooooooooooooooooooooooooooooooooooooooo    ......  ",
"  oooooooooooooooooooooooooooooooooooooooooooooooooo    ......  ",
"  oooooooooooooooooooooooooooooooooooooooooooooooooooo          ",
"  oooooooooooooooooooooooooooooooooooooooooooooooooooo          ",
"  oooooooooooooooooooooooooooooooooooooooooooooooooooooooooooo  ",
"  oooooooooooooooooooooooooooooooooooooooooooooooooooooooooooo  ",
"  oooooooooooooooooooooooooooooooooooooooooooooooooooooooooooo  ",
"  oooooooooooooooooooooooooooooooooooooooooooooooooooooooooooo  ",
"  oooooooooooooooooooooooooooooooooooooooooooooooooooooooooooo  ",
"  oooooooooooooooooooooooooooooooooooooooooooooooooooooooooooo  ",
"  oooooooooooooooooooooooooooooooooooooooooooooooooooooooooooo  ",
"  oooooooooooooooooooooooooooooooooooooooooooooooooooooooooooo  ",
"  oooooooooooooooooooooooooooooooooooooooooooooooooooooooooooo  ",
"  oooooooooooooooooooooooooooooooooooooooooooooooooooooooooooo  ",
"                                                                ",
"                                                                "
};
