/* XPM */
static char *e0a675a8388b404fd589239761632a13RvtfLrJ49l8wzbRN[] = {
/* columns rows colors chars-per-pixel */
"64 64 6 1 ",
"  c black",
". c #ED1C24",
"X c #4D6DF3",
"o c #00B7EF",
"O c #99D9EA",
"+ c white",
/* pixels */
"                                                                ",
"                                                                ",
"  oooooooooooooooooooooooooooooooooooooooooooooooooooooooooooo  ",
"  oooooooooooooooooooooooooooooooooooooooooooooooooooooooooooo  ",
"  oooooooooooooooooooooooooooooooooooooooooooooooooooooooooooo  ",
"  oooooooooooooooooooooooooooooooooooooooooooooooooooooooooooo  ",
"  oooooooooooooooooooooooooooooooooooooooooooooooooooooooooooo  ",
"  oooooooooooooooooooooooooooooooooooooooooooooooooooooooooooo  ",
"  oooooooooooooooooooooooooooooooooooooooooooooooooooooooooooo  ",
"  oooooooooooooooooooooooooooooooooooooooooooooooooooooooooooo  ",
"  oooooooooooooooooooooooooooooooooooooooooooooooooooooooooooo  ",
"  oooooooooooooooooooooooooooooooooooooooooooooooooooooooooooo  ",
"  oooooooooooooooooooooooooooooooooooooooooooooooooooooooooooo  ",
"  oooooooooooooooooooooooooooooooooooooooooooooooooooooooooooo  ",
"  oooooooooooooooooooooooooooooooooooooooooooooooooooooooooooo  ",
"  oooooooooooooooooooooooooooooooooooooooooooooooooooooooooooo  ",
"  oooooooooo      oooooooooooooooooooooooooooooooooooooooooooo  ",
"  oooooooooo      oooooooooooooooooooooooooooooooooooooooooooo  ",
"  oooooooo  oooooooooooooooooooooooooooooooooooooooooooooooooo  ",
"  oooooooo  oooooooooooooooooooooooooooooooooooooooooooooooooo  ",
"  oooooooooooooooooooooooooooooooooooooooooooooooooooooooooooo  ",
"  oooooooooooooooooooooooooooooooooooooooooooooooooooooooooooo  ",
"  oooooooooooooooooooooooooooooooooooooooooooooooooooooooooooo  ",
"  oooooooooooooooooooooooooooooooooooooooooooooooooooooooooooo  ",
"  oooooooo        oooooooooooooooooooooooooooooooooooooooooooo  ",
"  oooooooo        oooooooooooooooooooooooooooooooooooooooooooo  ",
"  oooooo  ++  ++++  oooooooooooooooooooooooooooooooooooooooooo  ",
"  oooooo  ++  ++++  oooooooooooooooooooooooooooooooooooooooooo  ",
"  oooooo  ++++++++  oooooooooooooooooooo            oooooooooo  ",
"  oooooo  ++++++++  oooooooooooooooooooo            oooooooooo  ",
"  oooooo  ++++++++  oooooooooooooooooo  XXXXXXXXXXXXoooooooooo  ",
"  oooooo  ++++++++  oooooooooooooooooo  XXXXXXXXXXXXoooooooooo  ",
"  oooooooo        oooooooooooooooooo  XXOOOOOOOO    oooooooooo  ",
"  oooooooo        oooooooooooooooooo  XXOOOOOOOO    oooooooooo  ",
"  oooooooooooooooooooooooooooooooo  XX          OOOOoooooooooo  ",
"  oooooooooooooooooooooooooooooooo  XX          OOOOoooooooooo  ",
"              oooooooooooooooooo  XXOOOOOOOOOOOOOO  oooooooooo  ",
"              oooooooooooooooooo  XXOOOOOOOOOOOOOO  oooooooooo  ",
"..............  oooooooooooooooo                  OOoooooooooo  ",
"..............  oooooooooooooooo                  OOoooooooooo  ",
"..............  oooooooooooooooo  XXOOOOOOOOOOOOOOOOoooooooooo  ",
"..............  oooooooooooooooo  XXOOOOOOOOOOOOOOOOoooooooooo  ",
"              oooooooooooooooooo                    oooooooooo  ",
"              oooooooooooooooooo                    oooooooooo  ",
"..............  oooooooooooooooooooooooooooooooooooooooooooooo  ",
"..............  oooooooooooooooooooooooooooooooooooooooooooooo  ",
"..............  oooooooooooooooooooooooooooooooooooooooooooooo  ",
"..............  oooooooooooooooooooooooooooooooooooooooooooooo  ",
"              oooooooooooooooooooooooooooooooooooooooooooooooo  ",
"              oooooooooooooooooooooooooooooooooooooooooooooooo  ",
"  oooooooooooooooooooooooooooooooooooooooooooooooooooooooooooo  ",
"  oooooooooooooooooooooooooooooooooooooooooooooooooooooooooooo  ",
"  oooooooooooooooooooooooooooooooooooooooooooooooooooooooooooo  ",
"  oooooooooooooooooooooooooooooooooooooooooooooooooooooooooooo  ",
"  oooooooooooooooooooooooooooooooooooooooooooooooooooooooooooo  ",
"  oooooooooooooooooooooooooooooooooooooooooooooooooooooooooooo  ",
"  oooooooooooooooooooooooooooooooooooooooooooooooooooooooooooo  ",
"  oooooooooooooooooooooooooooooooooooooooooooooooooooooooooooo  ",
"  oooooooooooooooooooooooooooooooooooooooooooooooooooooooooooo  ",
"  oooooooooooooooooooooooooooooooooooooooooooooooooooooooooooo  ",
"  oooooooooooooooooooooooooooooooooooooooooooooooooooooooooooo  ",
"  oooooooooooooooooooooooooooooooooooooooooooooooooooooooooooo  ",
"                                                                ",
"                                                                "
};
