/* XPM */
static char *result[] = {
/* columns rows colors chars-per-pixel */
"64 64 7 1 ",
"  c black",
". c #990030",
"X c #ED1C24",
"o c #4D6DF3",
"O c #00B7EF",
"+ c #99D9EA",
"@ c white",
/* pixels */
"                                                                ",
"                                                                ",
"  OOOOOOOOOOOOOOOOOOOOOOOOOOOOOOOOOOOOOOOOOOOOOOOOOOOOOOOOOOOO  ",
"  OOOOOOOOOOOOOOOOOOOOOOOOOOOOOOOOOOOOOOOOOOOOOOOOOOOOOOOOOOOO  ",
"  OOOOOOOOOOOOOOOOOOOOOOOOOOOOOOOOOOOOOOOOOOOOOOOOOOOOOOOOOOOO  ",
"  OOOOOOOOOOOOOOOOOOOOOOOOOOOOOOOOOOOOOOOOOOOOOOOOOOOOOOOOOOOO  ",
"  OOOOOOOOOOOOOOOOOOOOOOOOOOOOOOOOOOOOOOOOOOOOOOOOOOOOOOOOOOOO  ",
"  OOOOOOOOOOOOOOOOOOOOOOOOOOOOOOOOOOOOOOOOOOOOOOOOOOOOOOOOOOOO  ",
"  OOOOOOOOOOOOOOOOOOOOOOOOOOOOOOOOOOOOOOOOOOOOOOOOOOOOOOOOOOOO  ",
"  OOOOOOOOOOOOOOOOOOOOOOOOOOOOOOOOOOOOOOOOOOOOOOOOOOOOOOOOOOOO  ",
"  OOOOOOOOOOOOOOOOOOOOOOOOOOOOOOOOOOOOOOOOOOOOOOOOOOOOOOOOOOOO  ",
"  OOOOOOOOOOOOOOOOOOOOOOOOOOOOOOOOOOOOOOOOOOOOOOOOOOOOOOOOOOOO  ",
"  OOOOOOOOOOOOOOOOOOOOOOOOOOOOOOOOOOOOOOOOOOOOOOOOOOOOOOOOOOOO  ",
"  OOOOOOOOOOOOOOOOOOOOOOOOOOOOOOOOOOOOOOOOOOOOOOOOOOOOOOOOOOOO  ",
"  OOOOOOOOOOOOOOOO      OOOOOOOOOOOOOOOO      OOOOOOOOOOOOOOOO  ",
"  OOOOOOOOOOOOOOOO      OOOOOOOOOOOOOOOO      OOOOOOOOOOOOOOOO  ",
"  OOOOOOOOOOOOOO  OOOOOO  OOOOOOOOOOOO  OOOOOO  OOOOOOOOOOOOOO  ",
"  OOOOOOOOOOOOOO  OOOOOO  OOOOOOOOOOOO  OOOOOO  OOOOOOOOOOOOOO  ",
"  OOOOOOOOOOOOOOOOOOOOOOOOOOOOOOOOOOOOOOOOOOOOOOOOOOOOOOOOOOOO  ",
"  OOOOOOOOOOOOOOOOOOOOOOOOOOOOOOOOOOOOOOOOOOOOOOOOOOOOOOOOOOOO  ",
"  OOOOOOOOOOOOOOOOOO    OOOOOOOOOOOOOOOO    OOOOOOOOOOOOOOOOOO  ",
"  OOOOOOOOOOOOOOOOOO    OOOOOOOOOOOOOOOO    OOOOOOOOOOOOOOOOOO  ",
"        OOOOOOOOOO  @@@@  OOOOOOOOOOOO  @@@@  OOOOOOOOOO        ",
"        OOOOOOOOOO  @@@@  OOOOOOOOOOOO  @@@@  OOOOOOOOOO        ",
"oooooo      OOOO  @@@@@@@@  OOOOOOOO  @@@@@@@@  OOOO      oooooo",
"oooooo      OOOO  @@@@@@@@  OOOOOOOO  @@@@@@@@  OOOO      oooooo",
"      oooo    OO  @@@@  @@  OOOOOOOO  @@  @@@@  OO    oooo      ",
"      oooo    OO  @@@@  @@  OOOOOOOO  @@  @@@@  OO    oooo      ",
"++++++  oooo  OO  @@@@@@@@  OOOOOOOO  @@@@@@@@  OO  oooo  ++++++",
"++++++  oooo  OO  @@@@@@@@  OOOOOOOO  @@@@@@@@  OO  oooo  ++++++",
"      ++  oo  OOOO  @@@@  OOOOOOOOOOOO  @@@@  OOOO  oo  ++      ",
"      ++  oo  OOOO  @@@@  OOOOOOOOOOOO  @@@@  OOOO  oo  ++      ",
"++++++++++oo  OOOOOO    OOOOOOOOOOOOOOOO    OOOOOO  oo++++++++++",
"++++++++++oo  OOOOOO    OOOOOOOOOOOOOOOO    OOOOOO  oo++++++++++",
"        ++oo  OOOOOOOOOOOO            OOOOOOOOOOOO  oo++        ",
"        ++oo  OOOOOOOOOOOO            OOOOOOOOOOOO  oo++        ",
"++++++++++oo  OOOOOOOOOO  XXXXXXXXXXXX  OOOOOOOOOO  oo++++++++++",
"++++++++++oo  OOOOOOOOOO  XXXXXXXXXXXX  OOOOOOOOOO  oo++++++++++",
"              OOOOOOOO  XXXXXXXXXXXXXXXX  OOOOOOOO              ",
"              OOOOOOOO  XXXXXXXXXXXXXXXX  OOOOOOOO              ",
"++++++++++oo  OOOOOOOO  XXXX  ....  XXXX  OOOOOOOO  oo++++++++++",
"++++++++++oo  OOOOOOOO  XXXX  ....  XXXX  OOOOOOOO  oo++++++++++",
"        oo    OOOOOOOO    ..........      OOOOOOOO    oo        ",
"        oo    OOOOOOOO    ..........      OOOOOOOO    oo        ",
"oooooooo  OOOOOOOOOOOO  XXXX  ....  XXXX  OOOOOOOOOOOO  oooooooo",
"oooooooo  OOOOOOOOOOOO  XXXX  ....  XXXX  OOOOOOOOOOOO  oooooooo",
"        OOOOOOOOOOOOOO  XXXXXXXXXXXXXXXX  OOOOOOOOOOOOOO        ",
"        OOOOOOOOOOOOOO  XXXXXXXXXXXXXXXX  OOOOOOOOOOOOOO        ",
"  OOOOOOOOOOOOOOOOOOOOOO  XXXXXXXXXXXX  OOOOOOOOOOOOOOOOOOOOOO  ",
"  OOOOOOOOOOOOOOOOOOOOOO  XXXXXXXXXXXX  OOOOOOOOOOOOOOOOOOOOOO  ",
"  OOOOOOOOOOOOOOOOOOOOOOOO            OOOOOOOOOOOOOOOOOOOOOOOO  ",
"  OOOOOOOOOOOOOOOOOOOOOOOO            OOOOOOOOOOOOOOOOOOOOOOOO  ",
"  OOOOOOOOOOOOOOOOOOOOOOOOOOOOOOOOOOOOOOOOOOOOOOOOOOOOOOOOOOOO  ",
"  OOOOOOOOOOOOOOOOOOOOOOOOOOOOOOOOOOOOOOOOOOOOOOOOOOOOOOOOOOOO  ",
"  OOOOOOOOOOOOOOOOOOOOOOOOOOOOOOOOOOOOOOOOOOOOOOOOOOOOOOOOOOOO  ",
"  OOOOOOOOOOOOOOOOOOOOOOOOOOOOOOOOOOOOOOOOOOOOOOOOOOOOOOOOOOOO  ",
"  OOOOOOOOOOOOOOOOOOOOOOOOOOOOOOOOOOOOOOOOOOOOOOOOOOOOOOOOOOOO  ",
"  OOOOOOOOOOOOOOOOOOOOOOOOOOOOOOOOOOOOOOOOOOOOOOOOOOOOOOOOOOOO  ",
"  OOOOOOOOOOOOOOOOOOOOOOOOOOOOOOOOOOOOOOOOOOOOOOOOOOOOOOOOOOOO  ",
"  OOOOOOOOOOOOOOOOOOOOOOOOOOOOOOOOOOOOOOOOOOOOOOOOOOOOOOOOOOOO  ",
"  OOOOOOOOOOOOOOOOOOOOOOOOOOOOOOOOOOOOOOOOOOOOOOOOOOOOOOOOOOOO  ",
"  OOOOOOOOOOOOOOOOOOOOOOOOOOOOOOOOOOOOOOOOOOOOOOOOOOOOOOOOOOOO  ",
"                                                                ",
"                                                                "
};
