/* XPM */
static char *result[] = {
/* columns rows colors chars-per-pixel */
"64 64 6 1 ",
"  c black",
". c #ED1C24",
"X c #4D6DF3",
"o c #00B7EF",
"O c #99D9EA",
"+ c white",
/* pixels */
"                                                                ",
"                                                                ",
"  oooooooooooooooooooooooooooooooooooooooooooooooooooooooooooo  ",
"  oooooooooooooooooooooooooooooooooooooooooooooooooooooooooooo  ",
"  oooooooooooooooooooooooooooooooooooooooooooooooooooooooooooo  ",
"  oooooooooooooooooooooooooooooooooooooooooooooooooooooooooooo  ",
"  oooooooooooooooooooooooooooooooooooooooooooooooooooooooooooo  ",
"  oooooooooooooooooooooooooooooooooooooooooooooooooooooooooooo  ",
"  oooooooooooooooooooooooooooooooooooooooooooooooooooooooooooo  ",
"  oooooooooooooooooooooooooooooooooooooooooooooooooooooooooooo  ",
"  oooooooooooooooooooooooooooooooooooooooooooooooooooooooooooo  ",
"  oooooooooooooooooooooooooooooooooooooooooooooooooooooooooooo  ",
"  oooooooooooooooooooooooooooooooooooooooooooooooooooooooooooo  ",
"  oooooooooooooooooooooooooooooooooooooooooooooooooooooooooooo  ",
"  oooooooooooooooooooooooooooooooooooooooooooooooooooooooooooo  ",
"  oooooooooooooooooooooooooooooooooooooooooooooooooooooooooooo  ",
"  oooooooooooooooo      oooooooooooooooo      oooooooooooooooo  ",
"  oooooooooooooooo      oooooooooooooooo      oooooooooooooooo  ",
"  oooooooooooooooooooooo  oooooooooooo  oooooooooooooooooooooo  ",
"  oooooooooooooooooooooo  oooooooooooo  oooooooooooooooooooooo  ",
"  oooooooooooooooooooooooooooooooooooooooooooooooooooooooooooo  ",
"  oooooooooooooooooooooooooooooooooooooooooooooooooooooooooooo  ",
"  oooooooooooooooooooooooooooooooooooooooooooooooooooooooooooo  ",
"  oooooooooooooooooooooooooooooooooooooooooooooooooooooooooooo  ",
"  oooooooooooooooo        oooooooooooo        oooooooooooooooo  ",
"  oooooooooooooooo        oooooooooooo        oooooooooooooooo  ",
"  oooooooooooooo  ++++  ++  oooooooo  ++  ++++  oooooooooooooo  ",
"  oooooooooooooo  ++++  ++  oooooooo  ++  ++++  oooooooooooooo  ",
"      oooooooooo  ++++++++  oooooooo  ++++++++  oooooooooo      ",
"      oooooooooo  ++++++++  oooooooo  ++++++++  oooooooooo      ",
"XXXXXX  oooooooo  ++++++++  oooooooo  ++++++++  oooooooo  XXXXXX",
"XXXXXX  oooooooo  ++++++++  oooooooo  ++++++++  oooooooo  XXXXXX",
"OOOOOOXX  oooooooo        oooooooooooo        oooooooo  XXOOOOOO",
"OOOOOOXX  oooooooo        oooooooooooo        oooooooo  XXOOOOOO",
"        XX  oooooooooooooooooooooooooooooooooooooooo  XX        ",
"        XX  oooooooooooooooooooooooooooooooooooooooo  XX        ",
"OOOOOOOOOOXX  oooooo                        oooooo  XXOOOOOOOOOO",
"OOOOOOOOOOXX  oooooo                        oooooo  XXOOOOOOOOOO",
"              oooooo  ....................  oooooo              ",
"              oooooo  ....................  oooooo              ",
"OOOOOOOOOOXX  oooooo  ....................  oooooo  XXOOOOOOOOOO",
"OOOOOOOOOOXX  oooooo  ....................  oooooo  XXOOOOOOOOOO",
"              oooooo                        oooooo              ",
"              oooooo                        oooooo              ",
"  oooooooooooooooooo  ....................  oooooooooooooooooo  ",
"  oooooooooooooooooo  ....................  oooooooooooooooooo  ",
"  oooooooooooooooooo  ....................  oooooooooooooooooo  ",
"  oooooooooooooooooo  ....................  oooooooooooooooooo  ",
"  oooooooooooooooooo                        oooooooooooooooooo  ",
"  oooooooooooooooooo                        oooooooooooooooooo  ",
"  oooooooooooooooooooooooooooooooooooooooooooooooooooooooooooo  ",
"  oooooooooooooooooooooooooooooooooooooooooooooooooooooooooooo  ",
"  oooooooooooooooooooooooooooooooooooooooooooooooooooooooooooo  ",
"  oooooooooooooooooooooooooooooooooooooooooooooooooooooooooooo  ",
"  oooooooooooooooooooooooooooooooooooooooooooooooooooooooooooo  ",
"  oooooooooooooooooooooooooooooooooooooooooooooooooooooooooooo  ",
"  oooooooooooooooooooooooooooooooooooooooooooooooooooooooooooo  ",
"  oooooooooooooooooooooooooooooooooooooooooooooooooooooooooooo  ",
"  oooooooooooooooooooooooooooooooooooooooooooooooooooooooooooo  ",
"  oooooooooooooooooooooooooooooooooooooooooooooooooooooooooooo  ",
"  oooooooooooooooooooooooooooooooooooooooooooooooooooooooooooo  ",
"  oooooooooooooooooooooooooooooooooooooooooooooooooooooooooooo  ",
"                                                                ",
"                                                                "
};
