/* XPM */
static char *_e5fa722c2ae444987d950dcabb4a129OcXjUXywXlbydWl8[] = {
/* columns rows colors chars-per-pixel */
"64 64 6 1 ",
"  c black",
". c #ED1C24",
"X c #4D6DF3",
"o c #00B7EF",
"O c #99D9EA",
"+ c white",
/* pixels */
"                                                                ",
"                                                                ",
"  oooooooooooooooooooooooooooooooooooooooooooooooooooooooooooo  ",
"  oooooooooooooooooooooooooooooooooooooooooooooooooooooooooooo  ",
"  oooooooooooooooooooooooooooooooooooooooooooooooooooooooooooo  ",
"  oooooooooooooooooooooooooooooooooooooooooooooooooooooooooooo  ",
"  oooooooooooooooooooooooooooooooooooooooooooooooooooooooooooo  ",
"  oooooooooooooooooooooooooooooooooooooooooooooooooooooooooooo  ",
"  oooooooooooooooooooooooooooooooooooooooooooooooooooooooooooo  ",
"  oooooooooooooooooooooooooooooooooooooooooooooooooooooooooooo  ",
"  oooooooooooooooooooooooooooooooooooooooooooooooooooooooooooo  ",
"  oooooooooooooooooooooooooooooooooooooooooooooooooooooooooooo  ",
"  oooooooooooooooooooooooooooooooooooooooooooooooooooooooooooo  ",
"  oooooooooooooooooooooooooooooooooooooooooooooooooooooooooooo  ",
"  oooooooooo      oooooooooooooooooooooooooooooooooooooooooooo  ",
"  oooooooooo      oooooooooooooooooooooooooooooooooooooooooooo  ",
"  oooooooo  oooooo  oooooooooooooooooooooooooooooooooooooooooo  ",
"  oooooooo  oooooo  oooooooooooooooooooooooooooooooooooooooooo  ",
"  oooooooooooooooooooooooooooooooooooooooooooooooooooooooooooo  ",
"  oooooooooooooooooooooooooooooooooooooooooooooooooooooooooooo  ",
"  oooooooooo    oooooooooooooooooooooooooooooooooooooooooooooo  ",
"  oooooooooo    oooooooooooooooooooooooooooooooooooooooooooooo  ",
"  oooooooo  ++++  oooooooooooooooooooo          oooooooooooooo  ",
"  oooooooo  ++++  oooooooooooooooooooo          oooooooooooooo  ",
"  oooooo  ++++++++  oooooooooooooo      XXXXXXXXoooooooooooooo  ",
"  oooooo  ++++++++  oooooooooooooo      XXXXXXXXoooooooooooooo  ",
"  oooooo  ++  ++++  oooooooooooo    XXXX        oooooooooooooo  ",
"  oooooo  ++  ++++  oooooooooooo    XXXX        oooooooooooooo  ",
"  oooooo  ++++++++  oooooooooooo  XXXX  OOOOOOOOoooooooooooooo  ",
"  oooooo  ++++++++  oooooooooooo  XXXX  OOOOOOOOoooooooooooooo  ",
"  oooooooo  ++++  oooooooooooooo  XX  OO        oooooooooooooo  ",
"  oooooooo  ++++  oooooooooooooo  XX  OO        oooooooooooooo  ",
"  oooooooooo    oooooooooooooooo  XXOOOOOOOOOOOOoooooooooooooo  ",
"  oooooooooo    oooooooooooooooo  XXOOOOOOOOOOOOoooooooooooooo  ",
"          oooooooooooooooooooooo  XXOO          oooooooooooooo  ",
"          oooooooooooooooooooooo  XXOO          oooooooooooooo  ",
"  ......    oooooooooooooooooooo  XXOOOOOOOOOOOOoooooooooooooo  ",
"  ......    oooooooooooooooooooo  XXOOOOOOOOOOOOoooooooooooooo  ",
"..........  oooooooooooooooooooo                oooooooooooooo  ",
"..........  oooooooooooooooooooo                oooooooooooooo  ",
"..........  oooooooooooooooooooo  XXOOOOOOOOOOOOoooooooooooooo  ",
"..........  oooooooooooooooooooo  XXOOOOOOOOOOOOoooooooooooooo  ",
"            oooooooooooooooooooo    XX          oooooooooooooo  ",
"            oooooooooooooooooooo    XX          oooooooooooooo  ",
"..........  oooooooooooooooooooooooo  XXXXXXXXXXoooooooooooooo  ",
"..........  oooooooooooooooooooooooo  XXXXXXXXXXoooooooooooooo  ",
"..........  oooooooooooooooooooooooooo          oooooooooooooo  ",
"..........  oooooooooooooooooooooooooo          oooooooooooooo  ",
"  ......    oooooooooooooooooooooooooooooooooooooooooooooooooo  ",
"  ......    oooooooooooooooooooooooooooooooooooooooooooooooooo  ",
"          oooooooooooooooooooooooooooooooooooooooooooooooooooo  ",
"          oooooooooooooooooooooooooooooooooooooooooooooooooooo  ",
"  oooooooooooooooooooooooooooooooooooooooooooooooooooooooooooo  ",
"  oooooooooooooooooooooooooooooooooooooooooooooooooooooooooooo  ",
"  oooooooooooooooooooooooooooooooooooooooooooooooooooooooooooo  ",
"  oooooooooooooooooooooooooooooooooooooooooooooooooooooooooooo  ",
"  oooooooooooooooooooooooooooooooooooooooooooooooooooooooooooo  ",
"  oooooooooooooooooooooooooooooooooooooooooooooooooooooooooooo  ",
"  oooooooooooooooooooooooooooooooooooooooooooooooooooooooooooo  ",
"  oooooooooooooooooooooooooooooooooooooooooooooooooooooooooooo  ",
"  oooooooooooooooooooooooooooooooooooooooooooooooooooooooooooo  ",
"  oooooooooooooooooooooooooooooooooooooooooooooooooooooooooooo  ",
"                                                                ",
"                                                                "
};
