/* XPM */
static char *e927e1471af6417aeda1ce061fb82970iQm5NrUjXl8XmAz9[] = {
/* columns rows colors chars-per-pixel */
"64 64 5 1 ",
"  c black",
". c #9C5A3C",
"X c #4D6DF3",
"o c #00B7EF",
"O c #99D9EA",
/* pixels */
"                                                                ",
"                                                                ",
"  oooooooooooooooooooooooooooooooooooooooooooooooooooooooooooo  ",
"  oooooooooooooooooooooooooooooooooooooooooooooooooooooooooooo  ",
"  oooooooooooooooooooooooooooooooooooooooooooooooooooooooooooo  ",
"  oooooooooooooooooooooooooooooooooooooooooooooooooooooooooooo  ",
"  oooooooooooooooooooooooooooooooooooooooooooooooooooooooooooo  ",
"  oooooooooooooooooooooooooooooooooooooooooooooooooooooooooooo  ",
"  oooooooooooooooooooooooooooooooooooooooooooooooooooooooooooo  ",
"  oooooooooooooooooooooooooooooooooooooooooooooooooooooooooooo  ",
"  oooooooooooooooooooooooooooooooooooooooooooooooooooooooooooo  ",
"  oooooooooooooooooooooooooooooooooooooooooooooooooooooooooooo  ",
"  oooooooooooooooooooooooooooooooooooooooooooooooooooooooooooo  ",
"  oooooooooooooooooooooooooooooooooooooooooooooooooooooooooooo  ",
"  oooooooooooooooooooooooooooooooooooooooooooooooooooooooooooo  ",
"  oooooooooooooooooooooooooooooooooooooooooooooooooooooooooooo  ",
"  oooooooooooooooooooooooooooooooooooooooooooooooooooooooooooo  ",
"  oooooooooooooooooooooooooooooooooooooooooooooooooooooooooooo  ",
"  oooooooooooooooooooooooooooooooooooooooooooooooooooooooooooo  ",
"  oooooooooooooooooooooooooooooooooooooooooooooooooooooooooooo  ",
"  oooooooooooooooooooooooooooooooooooooooooooooooooooooooooooo  ",
"  oooooooooooooooooooooooooooooooooooooooooooooooooooooooooooo  ",
"        oooooooooooooooooooooooooooooooooooooooooooooooo        ",
"        oooooooooooooooooooooooooooooooooooooooooooooooo        ",
"XXXXXX      oooooooooooooooooooooooooooooooooooooooo      XXXXXX",
"XXXXXX      oooooooooooooooooooooooooooooooooooooooo      XXXXXX",
"      XXXX    oooooooooooooooooooooooooooooooooooo    XXXX      ",
"      XXXX    oooooooooooooooooooooooooooooooooooo    XXXX      ",
"OOOOOO  XXXX  oooooooooooooooooooooooooooooooooooo  XXXX  OOOOOO",
"OOOOOO  XXXX  oooooooooooooooooooooooooooooooooooo  XXXX  OOOOOO",
"      OO  XX  oooooooooooooooooooooooooooooooooooo  XX  OO      ",
"      OO  XX  oooooooooooooooooooooooooooooooooooo  XX  OO      ",
"OOOOOOOOOOXX  oooooooooooooooooooooooooooooooooooo  XXOOOOOOOOOO",
"OOOOOOOOOOXX  oooooooooooooooooooooooooooooooooooo  XXOOOOOOOOOO",
"        OOXX  oooooooooooooooooooooooooooooooooooo  XXOO        ",
"        OOXX  oooooooooooooooooooooooooooooooooooo  XXOO        ",
"OOOOOOOOOOXX  oooooooooooooooooooooooooooooooooooo  XXOOOOOOOOOO",
"OOOOOOOOOOXX  oooooooooooooooooooooooooooooooooooo  XXOOOOOOOOOO",
"              oooooooooooooooo....oooooooooooooooo              ",
"              oooooooooooooooo....oooooooooooooooo              ",
"OOOOOOOOOOXX  oooooooooooooooo....oooooooooooooooo  XXOOOOOOOOOO",
"OOOOOOOOOOXX  oooooooooooooooo....oooooooooooooooo  XXOOOOOOOOOO",
"        XX    oooooooooooooooooooooooooooooooooooo    XX        ",
"        XX    oooooooooooooooooooooooooooooooooooo    XX        ",
"XXXXXXXX  oooooooooooooooooooooooooooooooooooooooooooo  XXXXXXXX",
"XXXXXXXX  oooooooooooooooooooooooooooooooooooooooooooo  XXXXXXXX",
"        oooooooooooooooooooooooooooooooooooooooooooooooo        ",
"        oooooooooooooooooooooooooooooooooooooooooooooooo        ",
"  oooooooooooooooooooooooooooooooooooooooooooooooooooooooooooo  ",
"  oooooooooooooooooooooooooooooooooooooooooooooooooooooooooooo  ",
"  oooooooooooooooooooooooooooooooooooooooooooooooooooooooooooo  ",
"  oooooooooooooooooooooooooooooooooooooooooooooooooooooooooooo  ",
"  oooooooooooooooooooooooooooooooooooooooooooooooooooooooooooo  ",
"  oooooooooooooooooooooooooooooooooooooooooooooooooooooooooooo  ",
"  oooooooooooooooooooooooooooooooooooooooooooooooooooooooooooo  ",
"  oooooooooooooooooooooooooooooooooooooooooooooooooooooooooooo  ",
"  oooooooooooooooooooooooooooooooooooooooooooooooooooooooooooo  ",
"  oooooooooooooooooooooooooooooooooooooooooooooooooooooooooooo  ",
"  oooooooooooooooooooooooooooooooooooooooooooooooooooooooooooo  ",
"  oooooooooooooooooooooooooooooooooooooooooooooooooooooooooooo  ",
"  oooooooooooooooooooooooooooooooooooooooooooooooooooooooooooo  ",
"  oooooooooooooooooooooooooooooooooooooooooooooooooooooooooooo  ",
"                                                                ",
"                                                                "
};
